<?xml version="1.0" encoding="utf-8"?>
<!-- Generator: Adobe Illustrator 16.0.0, SVG Export Plug-In . SVG Version: 6.00 Build 0)  -->
<!DOCTYPE svg PUBLIC "-//W3C//DTD SVG 1.1//EN" "http://www.w3.org/Graphics/SVG/1.1/DTD/svg11.dtd">
<svg version="1.1" id="Capa_1" xmlns="http://www.w3.org/2000/svg" xmlns:xlink="http://www.w3.org/1999/xlink" x="0px" y="0px"
	 width="595.275px" height="595.277px" viewBox="0 0 595.275 595.277" enable-background="new 0 0 595.275 595.277"
	 xml:space="preserve">
<g>
	<defs>
		<path id="SVGID_1_" d="M573.3,244.257H298.15v114.086h158.379c-14.766,72.479-76.506,114.087-158.379,114.087
			c-96.638,0-174.485-77.848-174.485-174.485c0-96.639,77.847-174.486,174.485-174.486c41.607,0,79.188,14.764,108.717,38.923
			l85.901-85.9C440.422,30.848,373.313,2.662,298.15,2.662C134.402,2.662,2.867,134.197,2.867,297.945
			c0,163.747,131.535,295.283,295.283,295.283c147.641,0,281.861-107.376,281.861-295.283
			C580.012,280.496,577.327,261.706,573.3,244.257z"/>
	</defs>
	<clipPath id="SVGID_2_">
		<use xlink:href="#SVGID_1_"  overflow="visible"/>
	</clipPath>
	<path clip-path="url(#SVGID_2_)" fill="#FBBC05" d="M-23.977,472.431V123.459l228.173,174.486L-23.977,472.431z"/>
</g>
<g>
	<defs>
		<path id="SVGID_3_" d="M573.3,244.257H298.15v114.086h158.379c-14.766,72.479-76.506,114.087-158.379,114.087
			c-96.638,0-174.485-77.848-174.485-174.485c0-96.639,77.847-174.486,174.485-174.486c41.607,0,79.188,14.764,108.717,38.923
			l85.901-85.9C440.422,30.848,373.313,2.662,298.15,2.662C134.402,2.662,2.867,134.197,2.867,297.945
			c0,163.747,131.535,295.283,295.283,295.283c147.641,0,281.861-107.376,281.861-295.283
			C580.012,280.496,577.327,261.706,573.3,244.257z"/>
	</defs>
	<clipPath id="SVGID_4_">
		<use xlink:href="#SVGID_3_"  overflow="visible"/>
	</clipPath>
	<path clip-path="url(#SVGID_4_)" fill="#EA4335" d="M-23.977,123.459l228.173,174.486l93.954-81.874l322.127-52.346V-24.182
		H-23.977V123.459z"/>
</g>
<g>
	<defs>
		<path id="SVGID_5_" d="M573.3,244.257H298.15v114.086h158.379c-14.766,72.479-76.506,114.087-158.379,114.087
			c-96.638,0-174.485-77.848-174.485-174.485c0-96.639,77.847-174.486,174.485-174.486c41.607,0,79.188,14.764,108.717,38.923
			l85.901-85.9C440.422,30.848,373.313,2.662,298.15,2.662C134.402,2.662,2.867,134.197,2.867,297.945
			c0,163.747,131.535,295.283,295.283,295.283c147.641,0,281.861-107.376,281.861-295.283
			C580.012,280.496,577.327,261.706,573.3,244.257z"/>
	</defs>
	<clipPath id="SVGID_6_">
		<use xlink:href="#SVGID_5_"  overflow="visible"/>
	</clipPath>
	<path clip-path="url(#SVGID_6_)" fill="#34A853" d="M-23.977,472.431l402.658-308.705l106.033,13.422l135.563-201.33v644.253
		H-23.977V472.431z"/>
</g>
<g>
	<defs>
		<path id="SVGID_7_" d="M573.3,244.257H298.15v114.086h158.379c-14.766,72.479-76.506,114.087-158.379,114.087
			c-96.638,0-174.485-77.848-174.485-174.485c0-96.639,77.847-174.486,174.485-174.486c41.607,0,79.188,14.764,108.717,38.923
			l85.901-85.9C440.422,30.848,373.313,2.662,298.15,2.662C134.402,2.662,2.867,134.197,2.867,297.945
			c0,163.747,131.535,295.283,295.283,295.283c147.641,0,281.861-107.376,281.861-295.283
			C580.012,280.496,577.327,261.706,573.3,244.257z"/>
	</defs>
	<clipPath id="SVGID_8_">
		<use xlink:href="#SVGID_7_"  overflow="visible"/>
	</clipPath>
	<path clip-path="url(#SVGID_8_)" fill="#4285F4" d="M620.277,620.071L204.197,297.945l-53.688-40.266l469.769-134.22V620.071z"/>
</g>
</svg>
