<?xml version="1.0" encoding="iso-8859-1"?>
<!-- Generator: Adobe Illustrator 19.0.0, SVG Export Plug-In . SVG Version: 6.00 Build 0)  -->
<svg version="1.1" id="Capa_1" xmlns="http://www.w3.org/2000/svg" xmlns:xlink="http://www.w3.org/1999/xlink" x="0px" y="0px"
	 viewBox="0 0 512 512" style="enable-background:new 0 0 512 512;" xml:space="preserve">
<path style="fill:#D7DBDD;" d="M372.437,73.323C328.544,3.162,228.952-20.402,155.972,19.09
	c-31.146,16.854-54.076,44.666-69.319,76.235c-31.506,65.252-33.946,144.741-21.375,215.014
	c8.017,44.814,24.558,89.631,53.498,125.279c51.741,63.731,127.148,87.633,206.771,71.511
	c41.559-8.415,93.075-30.307,118.907-65.558c27.283-37.232-11.497-31.277-35.015-41.622c-29.968-13.182-23.05-43.864-21.964-70.852
	c3.044-75.682,28.947-162.688-4.036-235.244C380.171,86.661,376.495,79.809,372.437,73.323z"/>
<path style="fill:#C6CBCC;" d="M350.839,500.626c-8.638,2.687-17.151,4.856-25.293,6.499
	c-79.619,16.128-155.034-7.78-206.767-71.509C89.838,399.971,73.297,355.15,65.28,310.339
	C52.705,240.071,55.144,160.575,86.657,95.328c15.24-31.575,38.167-59.389,69.318-76.241c27.462-14.868,58.707-20.788,89.321-18.66
	c-5.29,2.129-10.466,4.566-15.53,7.305c-31.141,16.852-54.068,44.666-69.318,76.23c-31.503,65.258-33.941,144.743-21.367,215.012
	c8.017,44.821,24.559,89.631,53.499,125.277C233.652,474.858,289.662,500.347,350.839,500.626z"/>
<g>
	<path style="fill:#3A4747;" d="M163.293,259.583c0,13.547,11.02,24.568,24.567,24.568c13.547,0,24.567-11.021,24.567-24.568
		v-12.885c0-13.547-11.02-24.568-24.567-24.568c-13.547,0-24.567,11.021-24.567,24.568V259.583z M178.792,246.698
		c0-5.002,4.068-9.07,9.069-9.07s9.069,4.068,9.069,9.07v12.885c0,5.002-4.068,9.07-9.069,9.07s-9.069-4.068-9.069-9.07V246.698z"/>
	<path style="fill:#3A4747;" d="M166.505,185.629v-8.708c0-4.28-3.469-7.749-7.749-7.749c-4.28,0-7.749,3.469-7.749,7.749v8.708
		c0,8.12-5.077,14.982-11.086,14.982c-6.009,0-11.085-6.861-11.085-14.982v-8.708c0-4.28-3.469-7.749-7.749-7.749
		c-4.279,0-7.749,3.469-7.749,7.749v8.708c0,16.807,11.926,30.48,26.584,30.48C154.579,216.11,166.505,202.436,166.505,185.629z"/>
	<path style="fill:#3A4747;" d="M231.08,216.11c14.658,0,26.584-13.673,26.584-30.48v-8.708c0-4.28-3.469-7.749-7.749-7.749
		c-4.279,0-7.749,3.469-7.749,7.749v8.708c0,8.12-5.077,14.982-11.085,14.982s-11.086-6.861-11.086-14.982v-8.708
		c0-4.28-3.469-7.749-7.749-7.749c-4.28,0-7.749,3.469-7.749,7.749v8.708C204.495,202.436,216.421,216.11,231.08,216.11z"/>
</g>
<g>
</g>
<g>
</g>
<g>
</g>
<g>
</g>
<g>
</g>
<g>
</g>
<g>
</g>
<g>
</g>
<g>
</g>
<g>
</g>
<g>
</g>
<g>
</g>
<g>
</g>
<g>
</g>
<g>
</g>
</svg>
